<svg viewBox="0 0 64 64" xmlns="http://www.w3.org/2000/svg"><path fill-rule="evenodd" d="M57.57 47.99h-1.15v0c-.79-.01-1.43-.64-1.43-1.43V35.7v0c0-.41-.18-.8-.49-1.07v0c-1.71-1.43-2.64-3.59-2.51-5.81 0-8.56 3.37-12.9 6.31-12.86v0c.38.01.68.33.67.71v29.87l-.001-.001c0 .78-.64 1.42-1.43 1.42Zm-25.58 1.99v0c-9.95 0-18-8.06-18-18 0-9.95 8.05-18 18-18 9.94 0 18 8.05 18 18v0c0 9.94-8.06 18-18 18Zm0-31.999v-.001c-7.74 0-14 6.26-14 13.99s6.26 13.99 13.99 13.99c7.73-.01 13.99-6.27 13.99-14h0c-.01-7.74-6.27-14-14-14Zm0 25.99v0c-6.63 0-12-5.38-12-12 0-6.63 5.37-12 12-12 6.62 0 12 5.37 12 12v-.001c0 6.62-5.38 12-12 12ZM9 46.53v-.001c-.01.78-.65 1.42-1.43 1.42 -.01-.01-.01-.01-.01-.01H6.38v0c-.79 0-1.43-.64-1.43-1.43V35.95c0-3.35-2.99-2.73-2.99-7.29 0-3.77.55-10.79.68-12.39v0c.01-.19.17-.33.35-.33h.75 0c.19-.01.35.15.35.34 0 0 .23 8.56.24 8.96h0c.01.4.34.72.75.71 .38-.02.7-.32.71-.71 .01-.4.4-8.99.4-8.99h0c0-.2.16-.35.35-.35h.74v0c.19-.01.34.15.35.34 0 0 .39 8.59.4 8.98h0c.01.4.36.72.76.7 .38-.02.69-.33.7-.72 0-.4.24-8.97.24-8.97v0c0-.2.16-.35.35-.35h.75v-.001c.18-.01.34.13.35.32 .12 1.6.68 8.61.68 12.38 0 4.55-2.99 3.93-2.99 7.28Z"/></svg>